<svg xmlns="http://www.w3.org/2000/svg" viewBox="0 0 489.001 489.001"><path d="M2.2 168.151L.1 16.851c-.1-7.7 6.2-14 13.9-13.9l151.3 2.2c12.1.2 18.1 14.8 9.5 23.4l-42.1 42.1 70 70-65 65-70-70-42.1 42.1c-8.5 8.5-23.2 2.5-23.4-9.6zm419.1-31.6l42.1 42.1c8.6 8.6 23.2 2.6 23.4-9.5l2.2-151.3c.1-7.7-6.2-14-13.9-13.9l-151.3 2.2c-12.1.2-18.1 14.8-9.5 23.4l42 41.9-70 70 65 65 70-69.9zm-107.1 323.9c-8.6 8.6-2.6 23.2 9.5 23.4l151.3 2.2c7.7.1 14-6.2 13.9-13.9l-2.2-151.3c-.2-12.1-14.8-18.1-23.4-9.5l-42.1 42.1-70-70-65 65 70 70-42 42zM14 485.051l151.3-2.2c12.1-.2 18.1-14.8 9.5-23.4l-42.1-42 70-70-65-65-70 70-42.1-42.1c-8.6-8.6-23.2-2.6-23.4 9.5L0 471.151c0 7.7 6.3 14 14 13.9z" fill="#fff"/></svg>