<svg width="30" height="22" fill="none" xmlns="http://www.w3.org/2000/svg"><path d="M30 10.785c0-.074 0-.158-.003-.255a50.389 50.389 0 00-.164-3.643c-.1-1.208-.248-2.216-.45-2.973a4.671 4.671 0 00-3.29-3.298C25.145.362 23.29.204 20.679.107a157.489 157.489 0 00-3.901-.094C16.313.007 15.88.003 15.492 0h-.984c-.389.003-.82.007-1.286.013-1.33.017-2.658.047-3.9.094-2.612.1-4.47.258-5.415.51a4.666 4.666 0 00-3.29 3.297c-.205.757-.35 1.765-.45 2.973C.094 7.765.047 8.695.02 9.63c-.01.325-.013.63-.017.901 0 .097-.003.181-.003.255v.187c0 .074 0 .158.003.255a50.411 50.411 0 00.164 3.643c.1 1.208.248 2.216.45 2.973a4.666 4.666 0 003.29 3.298c.945.254 2.803.412 5.414.509 1.243.047 2.572.077 3.901.093.466.007.897.01 1.286.014h.984c.389-.004.82-.007 1.286-.014a157.17 157.17 0 003.9-.093c2.612-.1 4.47-.258 5.415-.51a4.66 4.66 0 003.29-3.297c.205-.757.35-1.765.45-2.974.073-.877.12-1.808.147-2.742.01-.325.013-.63.017-.9 0-.098.003-.181.003-.255v-.187zm-2.41.174c0 .07 0 .147-.004.238-.003.26-.01.549-.017.86-.023.89-.07 1.781-.14 2.608-.09 1.078-.218 1.962-.375 2.555a2.253 2.253 0 01-1.587 1.59c-.704.188-2.475.338-4.882.429a152.262 152.262 0 01-5.106.104h-.958l-1.265-.01c-1.31-.017-2.619-.047-3.84-.094-2.408-.094-4.183-.241-4.883-.429a2.259 2.259 0 01-1.587-1.59c-.157-.593-.284-1.477-.375-2.555a48.501 48.501 0 01-.14-2.608c-.01-.311-.014-.603-.017-.86 0-.09-.003-.171-.003-.238v-.161c0-.07 0-.147.003-.238.003-.26.01-.549.017-.86.023-.89.07-1.781.14-2.608.09-1.079.218-1.963.375-2.555a2.253 2.253 0 011.587-1.59c.704-.188 2.475-.339 4.882-.43a152.073 152.073 0 015.106-.103h.958l1.265.01c1.31.017 2.619.047 3.84.094 2.408.094 4.183.241 4.883.428a2.26 2.26 0 011.587 1.59c.157.593.284 1.477.375 2.556a49.03 49.03 0 01.157 3.468c0 .09.003.171.003.238v.16zm-15.57 4.406l7.768-4.52-7.768-4.453v8.973z" fill="#fff"/></svg>