<svg width="30" height="30" fill="currentColor" xmlns="http://www.w3.org/2000/svg"><path d="M15.236 29.12l-.049.102a1.287 1.287 0 01-.549.523 1.887 1.887 0 01-.933.255l-.16-.024a1.43 1.43 0 01-.684-.177l-.185-.102c-.102-.05-.19-.123-.273-.186a.325.325 0 00-.3-.064l-.2.064a2.63 2.63 0 01-.744.122l-.15.04c-.277 0-.55-.074-.748-.25l-.16-.128a.702.702 0 01-.248-.377c-.04-.122-.165-.21-.31-.225l-.423-.024c-.335 0-.647-.162-.875-.412l-.224-.304c-.059-.059-.121-.122-.224-.17a.303.303 0 00-.248-.064c-.121.024-.16 0-.175-.064.077-.201.053-.328-.049-.417l-.209-.161-.5-.45a.482.482 0 00-.519-.098l-.325.147c-.073.024-.16 0-.185-.064 0-.162.059-.275.16-.323l.088-.05c.15-.077.224-.254.16-.376a2.062 2.062 0 01-.12-.714v-.402a.56.56 0 00-.476-.553c-.346-.049-.623-.171-.807-.348a2.147 2.147 0 01-.5-.65c-.17-.329-.423-.53-.743-.593a1.336 1.336 0 01-.87-.587l-.534-.955-.165-.274a1.796 1.796 0 00-.374-.44l-.297-.25a.849.849 0 01-.248-.402 1.21 1.21 0 01-.048-.45l.033-.499c0-.25.064-.45.15-.651l.064-.127c.048-.127.024-.25-.063-.313l-.064-.113-.559-.538a.49.49 0 01-.15-.44 1.58 1.58 0 01.165-.475c.122-.226.17-.412.17-.627v-.127c0-.274.04-.548.102-.827l.048-.186a.486.486 0 00-.175-.499.114.114 0 01-.054-.082.116.116 0 01.03-.094c.024-.04.048-.05.087-.064.248-.025.438-.177.496-.377l.063-.201a1 1 0 01.374-.524c.185-.126.374-.279.495-.45l.126-.126a.588.588 0 00.16-.475v-.739c0-.303.054-.591.176-.88.126-.275.15-.564.048-.823a2.05 2.05 0 01-.083-.856l.083-.538a.991.991 0 01.34-.652l.06-.064c.125-.122.286-.25.461-.372a.468.468 0 00.248-.425v-.778c0-.191.04-.377.126-.53.121-.16.248-.298.374-.425l.16-.122a.94.94 0 01.66-.215c.2 0 .37-.152.37-.348l.03-.255c0-.176.12-.323.28-.411l.253-.127.72-.323a.71.71 0 01.35-.054c.12 0 .223-.034.272-.122l.087-.127a.57.57 0 01.525-.225l.583.088.248.024a.398.398 0 00.374-.15.58.58 0 01.471-.285h.248c.126 0 .277.025.374.123a.597.597 0 00.374.126l.287-.04c.2 0 .374-.121.495-.249a.778.778 0 01.525-.304c.31-.048.559-.059.807-.059h.286c.102 0 .2 0 .296-.04a.447.447 0 00.229-.16l.185-.25c.16-.255.374-.431.66-.53.272-.127.559-.161.845-.161h.097c.224 0 .462.024.67.097a.897.897 0 00.623-.033c.175-.103.373-.167.587-.191.248-.05.495-.025.695.064l.088.024c.152.065.288.164.398.289.126.126.2.25.286.323.073.078.2.127.31.088l.176-.034c.248-.064.495-.064.72 0h.1c.185.05.346.122.496.201a.917.917 0 01.374.372l.121.191a.336.336 0 00.277.152.47.47 0 01.321.122l.253.19c.16.123.296.284.37.46.109.16.234.307.373.442.146.125.316.219.5.274a.416.416 0 01.345.416v.676c0 .176.126.337.277.411.167.071.321.168.457.289.126.12.28.208.447.254.15.025.253.147.2.275a.316.316 0 00.125.401c.218.127.42.281.598.46l.073.089c.126.166.224.377.224.567 0 .226.101.338.248.372.14.04.282.066.427.078.14.027.277.068.408.123l.073.063c.19.127.374.226.534.353l.078.049c.209.161.374.376.433.626.088.267.13.546.125.827v.177a.427.427 0 00.2.337l.126.074.146.078.277.161a.933.933 0 01.446.563c.064.262.088.533.073.802l-.024.201c0 .177-.049.338-.126.5-.049.126 0 .303.126.376a.861.861 0 01.325.44l.121.378c.064.259.064.53 0 .788l-.063.201a.719.719 0 01-.121.353.682.682 0 00-.078.372l.03.166c.023.25 0 .474-.064.7l-.078.337a.69.69 0 01-.286.377.498.498 0 00-.248.377v.401c-.034.25-.121.475-.31.627l-.471.499-.15.176-.2.275-.122.161c-.133.196-.219.42-.248.656l-.125.75c0 .077-.025.126-.04.2l-.063.289a.57.57 0 01-.248.337c-.121.073-.176.215-.121.337.097.25.12.45.16.651v.177a1.86 1.86 0 01-.16.93c-.126.3-.31.5-.55.685a1.01 1.01 0 00-.422.656l-.073.348c-.053.26-.156.508-.301.73a1.33 1.33 0 01-.535.474 1.561 1.561 0 01-.622.176h-.097a.608.608 0 00-.534.436c-.074.255-.201.49-.374.69a.885.885 0 01-.646.279l-.55-.03c-.213 0-.398.065-.534.216-.15.151-.335.25-.534.25l-.447.04c-.328.03-.652.084-.972.161a.63.63 0 01-.709-.274l-.063-.089a.309.309 0 00-.398-.102l-.122.102a.869.869 0 00-.248.377c-.029.098-.126.122-.189.122l-.15-.122a.233.233 0 00-.297 0 .597.597 0 01-.35.162l-.869.024c-.175 0-.35-.024-.52-.073-.15-.054-.325 0-.397.146h.01zm-1.643-12.402c-.087-.088-.248-.073-.31 0a1.105 1.105 0 01-.335.289l-.2.127a1.674 1.674 0 00-.422.323l-.024.024c-.1.125-.229.224-.374.289a.388.388 0 01-.374 0l-.121-.073a.908.908 0 00-.447-.127h-.053a.7.7 0 00-.37.127 1.48 1.48 0 01-.35.122h-.072a.507.507 0 01-.437-.098 1.436 1.436 0 00-.496-.215H9.18a.476.476 0 00-.408.053.457.457 0 01-.398.05l-.248-.09a1.808 1.808 0 01-.598-.336l-.185-.177-.15-.127-.073-.073a.246.246 0 00-.301-.025.575.575 0 01-.374.074l-.175-.025a1.46 1.46 0 01-.695-.288l-.049-.05a1.385 1.385 0 01-.5-.7l-.12-.342c-.05-.147-.214-.25-.375-.25a.912.912 0 01-.534-.176l-.064-.06c-.208-.126-.422-.278-.646-.376l-.16-.088A.256.256 0 003 14.46c-.21 0-.398.127-.409.328l-.039.548c-.024.313 0 .627 0 .93l.126 1.062c0 .166.121.289.297.304a.404.404 0 01.374.274l.12.45.04.127.126.377a1.047 1.047 0 00.559.627l.16.097c.275.13.506.34.66.602.16.25.423.377.72.402h.125c.248.024.495.102.67.25l.102.063a.4.4 0 00.423.064.979.979 0 01.47-.088h.661a.411.411 0 01.37.25.534.534 0 00.374.337l.248.064a.632.632 0 00.65-.25c.146-.2.37-.328.647-.377h.224c.248-.039.495-.176.622-.4.15-.226.374-.402.622-.5l.2-.064a.68.68 0 00.456-.577v-.074c0-.225.126-.425.326-.553a.807.807 0 00.374-.548l.097-.352c.063-.215.175-.417.335-.578l.029-.025a.325.325 0 00-.054-.44l-.097-.089-.014.017zm-1.141-1.428c.073-.122.034-.25-.077-.299l-.06-.04a2.82 2.82 0 01-.5-.322l-.373-.255c0-.034-.024-.049-.049-.06l-.398-.303c-.121-.127-.209-.274-.209-.45a.409.409 0 00-.248-.377.937.937 0 01-.475-.274l-.073-.064a1.217 1.217 0 01-.248-.377c-.024-.161-.053-.313-.053-.465v-.372c0-.151-.06-.279-.185-.352a.712.712 0 01-.272-.313l-.054-.127a2.407 2.407 0 01-.17-.651l-.024-.25c0-.151 0-.313.083-.465a.335.335 0 00-.024-.412l-.048-.088a1.41 1.41 0 01-.248-.627v-.024a3.076 3.076 0 01-.04-.73v-.122c.04-.25.126-.465.311-.626l.049-.04c.125-.127.228-.323.228-.499v-.215a.19.19 0 00-.088-.162.253.253 0 01-.077-.161V5.64c0-.177.048-.337.102-.499l.087-.215c.059-.201.122-.412.146-.627V4.15c0-.098-.059-.162-.146-.162a.64.64 0 00-.35.089l-.199.088c-.16.098-.335.177-.495.25l-.064.024a.39.39 0 01-.374 0h-.063a.211.211 0 00-.248.127v.098a1.03 1.03 0 01-.335.503l-.126.123c-.121.126-.31.2-.495.254-.16.06-.286.196-.286.372v.53a.708.708 0 01-.273.464l-.063.05c-.13.09-.272.16-.423.21-.126.064-.2.2-.16.328l.048.151c.088.25.122.499.097.749l-.024.201a.977.977 0 01-.209.578l-.087.127c-.073.095-.132.2-.176.313-.048.122-.024.225.064.298l.072.064a.853.853 0 01.249.475l.039.675a.495.495 0 00.15.338.729.729 0 01.17.343v.024c0 .122.087.25.175.372h.024a.639.639 0 01.19.455l.024.049c0 .151 0 .299.039.45v.151a.54.54 0 00.433.426l.286.049c.195.04.378.126.534.25.15.127.248.279.248.465v.21c.03.127.166.255.311.23.214-.029.398 0 .588.034l.208.05a.576.576 0 01.399.342l.039.074v.024c.048.073.16.127.248.064a.565.565 0 01.374-.088l.398.039c.144.008.284.05.409.122a.381.381 0 00.374.024l.272-.122a.533.533 0 01.398-.04c.12.044.248.06.374.05a.346.346 0 00.301-.177l.048-.046zm8.991-9.896c.122-.127.17-.313.073-.465l-.16-.25a.697.697 0 00-.374-.275h-.024l-.374-.126-.126-.074-.122-.053-.087-.05a.378.378 0 01-.214-.25l-.024-.048a.225.225 0 00-.224-.166.535.535 0 01-.31-.122l-.088-.103-.321-.25h-.024a.924.924 0 00-.34-.151.616.616 0 00-.37.053l-.053.025c-.103.044-.21.074-.32.088l-.35.034-.375.04a.702.702 0 01-.369-.127 1.555 1.555 0 00-.35-.201h-.048l-.024-.025c-.126-.024-.253.04-.253.151-.059.127-.16.25-.31.289l-.073.04a2.624 2.624 0 01-.671.097l-.622-.024h-.04a.376.376 0 00-.373.376v.025a.835.835 0 01-.248.627l-.126.097-.282.255-.374.323c-.173.121-.333.26-.476.417-.12.122-.248.312-.272.498l-.039.25a1.27 1.27 0 01-.17.426c-.077.102-.053.25.049.352l.175.162.049.078c.024.088-.025.171-.126.21a.632.632 0 01-.471-.024h-.073c-.088 0-.15.073-.126.151v.201a1.56 1.56 0 01-.121.661l-.053.127a.944.944 0 00-.097.411.719.719 0 00.097.377l.039.049c.095.151.15.325.16.504v.411a.825.825 0 00.165.504c.096.16.162.338.194.523l.053.338c.035.165.107.32.21.454.125.123.199.3.247.46l.03.065c.06.205.19.382.369.499l.15.15a.333.333 0 00.398 0c.126-.072.16-.225.126-.376l-.078-.186c-.033-.098 0-.215.049-.299a.41.41 0 00.088-.303l-.034-.313c0-.177 0-.352.049-.523.063-.191.125-.353.248-.504a.918.918 0 00.2-.5c.023-.19.063-.376.125-.553l.024-.122a.522.522 0 01.248-.303.769.769 0 01.375-.122h.039a.254.254 0 00.248-.255v-.073c0-.201.024-.417.087-.627l.034-.088a.732.732 0 01.253-.338c.121-.102.248-.161.369-.2l.175-.04c.19-.034.374-.05.574-.05h.063a.33.33 0 00.297-.225c.024-.126.077-.274.15-.416l.024-.059a1.67 1.67 0 01.374-.45l.088-.064a.982.982 0 01.656-.25h.087c.19 0 .374.034.55.098.15.049.325 0 .374-.162l.063-.088c.073-.19.209-.353.37-.475.189-.127.398-.176.621-.176h.374a.734.734 0 01.31.122.262.262 0 00.302 0l.121-.073-.014-.021zm-6.368 8.017v.024c0 .054.064.078.126.064l.248-.049c.2-.049.399-.073.598-.102.2-.025.37-.122.495-.275v-.048a.817.817 0 01.598-.313h.622a.43.43 0 00.35-.078l.059-.06a.859.859 0 01.5-.19l.684-.034c.16 0 .297.098.321.25l.024.122c0 .088.102.127.19.127.097 0 .209-.04.31-.073h.024a.886.886 0 01.375-.04l.334.049c.244.046.478.13.695.25l.15.088a.543.543 0 01.248.255.434.434 0 00.273.25l.446.098c.265.07.517.181.748.327v.025c.204.15.373.341.496.563l.101.151.185.377a.394.394 0 00.301.225l.409.06c.248.039.461.126.622.303l.189.162.185.19.2.186c.175.152.247.377.213.627l-.088.45-.053.416v.113c.053.05.126.06.2.025.15-.089.252-.226.252-.377l.049-.274c0-.127.063-.28.121-.402.088-.127.15-.25.19-.4v-.025c.063-.167.072-.338.063-.504l-.03-.186c-.023-.215 0-.416.078-.587l.049-.152c.024-.063 0-.161-.064-.225a.752.752 0 01-.16-.25l-.024-.102a1.706 1.706 0 01-.078-.5v-.102a.8.8 0 01.102-.411l.024-.05c.04-.088 0-.19-.073-.254a.696.696 0 01-.248-.21l-.213-.313-.126-.201-.059-.103a.807.807 0 01-.126-.45l-.039-.45a.453.453 0 00-.32-.377 1.402 1.402 0 01-.535-.25 3.67 3.67 0 01-.423-.376.875.875 0 01-.2-.5v-.102a.42.42 0 00-.422-.337h-.835a1.382 1.382 0 01-.409-.147l-.374-.254-.126-.098c-.063-.078-.145-.127-.248-.215l-.16-.122c-.126-.078-.287-.078-.398.024a.849.849 0 01-.471.21h-.054c-.207.03-.418.019-.622-.033h-.058a2.325 2.325 0 01-.476-.255.282.282 0 00-.398.04l-.185.215a.912.912 0 01-.598.298l-.248.025c-.077 0-.16 0-.248.024l-.19.025a.715.715 0 00-.494.328l-.025.088c-.086.14-.2.26-.334.352-.126.098-.302.147-.476.186l-.209.04c-.077 0-.126.049-.16.122l-.19.602c-.024.127-.121.25-.209.338v.024a.185.185 0 00-.029.28l.126.121c.04.025.049.054.04.089 0 .078-.064.127-.126.102a.555.555 0 00-.52.21l-.126.167-.248.372c-.039.102 0 .255.121.303l.078.05c.024 0 .033.039.048.048 0 .054 0 .127-.063.127l-.064.04c-.072.033-.12.122-.145.2l-.063.029zm1.244 1.502l-.064.064c-.048.064-.039.127.024.19.148.091.309.159.476.202h.024c.16.034.273.186.248.337v.147a.316.316 0 00.32.313c.225 0 .453.078.623.215l.078.073c.157.132.274.307.335.504l.024.098a.338.338 0 00.272.25c.126 0 .253.078.35.176l.097.127c.165.151.253.377.277.602l.063.627c0 .201.121.372.31.5a.75.75 0 01.336.498l.024.28c.028.208.02.42-.024.626l-.025.122-.087.343a.265.265 0 00.087.299l.16.127a.727.727 0 01.249.626l-.097.813c0 .127-.064.226-.126.337-.073.127-.16.216-.248.304l-.374.313a.208.208 0 00-.024.161l.072.177.176.7c.039.127 0 .289-.073.412-.102.127-.126.279-.126.43v.162a.284.284 0 00.133.175.277.277 0 00.217.026l.248-.05a.54.54 0 01.398.035c.126.063.248.048.374-.034l.097-.078c.15-.098.277-.25.398-.377.126-.122.248-.25.413-.348l.335-.19a.49.49 0 00.273-.45.83.83 0 01.184-.524l.35-.377c.088-.102.102-.25.024-.352l-.024-.064c0-.073.049-.122.126-.122h.063c.16 0 .31-.127.37-.289l.126-.562c.063-.201.126-.401.248-.592v-.098a.18.18 0 00-.126-.17.176.176 0 00-.074-.007h-.433c-.126 0-.252-.049-.3-.15l-.025-.065c.024-.059.073-.122.126-.098h.209a.58.58 0 00.422-.161.401.401 0 00.102-.426.955.955 0 01-.064-.465l.025-.465c.024-.226 0-.436-.088-.627a1.89 1.89 0 00-.31-.587l-.05-.073-.334-.377a.632.632 0 01-.19-.44v-.5a.588.588 0 00-.494-.503l-.248-.05a.657.657 0 01-.438-.185c-.126-.127-.2-.25-.248-.377l-.063-.151a.816.816 0 00-.496-.45l-.3-.074c-.249-.064-.496-.19-.657-.377l-.028-.024c-.122-.151-.37-.177-.544-.078l-.088.04a.516.516 0 01-.47.039 2.194 2.194 0 01-.476-.226l-.176-.126c-.097-.05-.248-.05-.335.024a.568.568 0 01-.345.127l-.175.024h-.422a.916.916 0 00-.414.04l-.145.049-.038.005zm-.948 1.791h-.034c-.125 0-.2.078-.2.177v.328a.86.86 0 010 .352v.563c0 .289-.052.563-.125.837l-.073.304-.077.25-.185.563a1.06 1.06 0 01-.558.665l-.126.064c-.185.088-.287.274-.248.46 0 .215 0 .426-.097.627l-.064.151c-.126.288-.374.499-.709.499l-.334.054a.54.54 0 00-.399.298c-.08.177-.176.345-.286.504l-.04.06c-.15.197-.351.35-.582.44l-.073.024a1.163 1.163 0 01-.622.025l-.077-.025a1.666 1.666 0 00-.495-.064.59.59 0 00-.414.177l-.16.177a.905.905 0 01-.66.337c-.266.029-.534.02-.797-.024h-.073a.248.248 0 00-.248.25v.039c0 .162.097.299.248.377a1.4 1.4 0 01.447.274l.064.05.374.376c.12.127.31.2.495.225.19.024.374.075.55.152l.063.024c.148.06.277.16.373.289a.535.535 0 00.394.21l.574.024c.248 0 .5.04.748.127l.097.025a.32.32 0 00.413-.152l.224-.523.024-.049c0-.04.024-.053.063-.064.049-.04.121 0 .121.04l.064.122c.024.073.102.127.19.151l.12.025h.025l.7.127c.096.024.208.024.32.024a.24.24 0 00.224-.151l.126-.275a2.32 2.32 0 01.248-.377l.101-.126a.443.443 0 00.122-.147l.048-.053a.574.574 0 01.287-.177l.558-.122c.15 0 .277-.127.31-.25l.064-.201s0-.04.024-.064l.078-.25c.063-.201.175-.377.32-.53a2.56 2.56 0 01.462-.425l.049-.049c.126-.102.19-.25.15-.4a1.901 1.901 0 01-.049-.475v-.191c0-.122.034-.289.122-.426.077-.122.126-.288.189-.436v-.04a.472.472 0 00-.049-.44.709.709 0 01-.15-.45l.034-.587c0-.127-.024-.25-.121-.313v-.025l-.2-.215-.063-.064a.546.546 0 01-.185-.396v-.568c0-.146-.126-.288-.248-.347a.476.476 0 01-.253-.338l-.048-.254c0-.098-.088-.186-.2-.226a.581.581 0 01-.296-.186l-.2-.201a.69.69 0 00-.398-.215l.01.024z"/></svg>