<svg width="30" height="31" fill="none" xmlns="http://www.w3.org/2000/svg"><path d="M15 .757a15 15 0 100 30 15 15 0 000-30zm3.954 27.229h-.117a.642.642 0 01-.477-.175.644.644 0 01-.175-.465v-1.758c.008-.584.013-1.175.013-1.77a4.613 4.613 0 00-.19-1.285 2.289 2.289 0 00-.677-1.094 10.015 10.015 0 002.548-.588 5.063 5.063 0 001.832-1.206 4.791 4.791 0 001.107-1.882c.266-.862.392-1.76.374-2.663a5.172 5.172 0 00-.325-1.845 4.865 4.865 0 00-.993-1.605c.093-.234.161-.478.202-.727.041-.25.063-.502.063-.755 0-.325-.038-.65-.113-.966a6.641 6.641 0 00-.276-.954.366.366 0 00-.139-.025h-.137c-.288.002-.57.05-.843.139a6.51 6.51 0 00-.878.325c-.284.127-.56.27-.827.428-.268.16-.506.312-.716.453a11.972 11.972 0 00-6.429 0 16.932 16.932 0 00-.715-.453 7.518 7.518 0 00-.84-.427 5.643 5.643 0 00-.881-.326 2.754 2.754 0 00-.828-.139H8.38a.363.363 0 00-.138.025c-.117.311-.213.63-.287.954-.067.317-.1.641-.101.966 0 .253.021.505.064.755.04.249.107.492.2.727a4.86 4.86 0 00-.99 1.607 5.177 5.177 0 00-.33 1.845 8.589 8.589 0 00.366 2.65 5.11 5.11 0 001.105 1.895 5.22 5.22 0 001.832 1.205 9.657 9.657 0 002.541.595c-.242.22-.435.49-.564.791-.124.298-.208.61-.25.93-.46.22-.96.335-1.47.338a2.235 2.235 0 01-1.33-.375 3.631 3.631 0 01-.94-1.03 3.867 3.867 0 00-.365-.478 3.366 3.366 0 00-.465-.429 2.303 2.303 0 00-.54-.3 1.5 1.5 0 00-.602-.126c-.05.001-.1.006-.15.012a.804.804 0 00-.202.025.51.51 0 00-.163.076.144.144 0 00-.075.125.413.413 0 00.175.302c.117.093.213.164.29.214l.038.026c.166.129.326.268.477.416.14.123.266.262.375.413.113.149.21.307.289.476.091.167.188.36.289.579a2.985 2.985 0 001.192 1.431 3.703 3.703 0 001.845.439c.218 0 .436-.013.653-.038.215-.035.429-.071.644-.113v2.178a.625.625 0 01-.667.651h-.077a12.858 12.858 0 117.905 0v.007-.002z" fill="#fff"/></svg>